<?xml version="1.0" standalone="no"?>
<!DOCTYPE svg PUBLIC "-//W3C//DTD SVG 20010904//EN"
 "http://www.w3.org/TR/2001/REC-SVG-20010904/DTD/svg10.dtd">
<svg version="1.0" xmlns="http://www.w3.org/2000/svg"
 width="565.000000pt" height="565.000000pt" viewBox="0 0 565.000000 565.000000"
 preserveAspectRatio="xMidYMid meet">
<metadata>
Created by potrace 1.11, written by Peter Selinger 2001-2013
</metadata>
<g transform="translate(0.000000,565.000000) scale(0.100000,-0.100000)"
fill="#000000" stroke="none">
<path d="M1089 5517 c75 -74 288 -280 473 -458 l338 -324 -475 -3 -475 -2 0
-1910 0 -1910 290 0 290 0 0 739 0 739 298 5 c229 4 314 9 372 22 164 37 324
126 422 234 93 103 165 263 187 416 5 39 9 -139 10 -497 l1 -558 279 0 278 0
5 -148 c4 -133 7 -153 32 -208 62 -138 192 -204 373 -191 127 9 225 72 273
173 31 68 43 184 38 397 -4 165 -7 199 -25 245 -50 126 -140 197 -423 334
-326 159 -446 234 -565 353 -183 183 -248 345 -262 650 -12 292 22 536 96 683
148 293 456 445 866 429 275 -11 467 -83 617 -230 160 -158 225 -343 235 -674
l6 -193 -124 0 c-68 0 -195 -3 -281 -7 l-158 -6 0 99 c-1 200 -25 295 -94 372
-52 57 -122 84 -228 90 -164 8 -286 -53 -339 -170 -23 -51 -24 -62 -24 -283 0
-258 3 -274 80 -365 64 -76 127 -115 429 -265 160 -79 332 -171 382 -204 184
-121 301 -287 350 -497 21 -90 32 -611 15 -737 -61 -456 -330 -703 -812 -745
l-85 -7 472 -452 473 -453 475 0 476 0 0 2825 0 2825 -2349 0 -2349 0 137
-133z m943 -1351 c91 -27 155 -99 184 -208 21 -79 20 -734 -1 -805 -23 -78
-72 -142 -135 -177 l-55 -31 -247 -3 -248 -3 0 620 0 621 228 0 c165 0 242 -4
274 -14z"/>
</g>
</svg>
